<mxfile host="65bd71144e">
    <diagram id="HcpIUWq8zK6c5rFBo39h" name="Page-1">
        <mxGraphModel dx="787" dy="565" grid="0" gridSize="10" guides="1" tooltips="1" connect="1" arrows="1" fold="1" page="1" pageScale="1" pageWidth="4681" pageHeight="3300" math="0" shadow="0">
            <root>
                <mxCell id="0"/>
                <mxCell id="1" parent="0"/>
                <mxCell id="2" value="" style="shape=singleArrow;whiteSpace=wrap;html=1;hachureGap=4;fontFamily=Architects Daughter;fontSource=https%3A%2F%2Ffonts.googleapis.com%2Fcss%3Ffamily%3DArchitects%2BDaughter;fontSize=16;arrowWidth=0.4666660853794643;arrowSize=0.07650256547771517;sketch=1;curveFitting=1;jiggle=2;" vertex="1" parent="1">
                    <mxGeometry x="140" y="270" width="700" height="70" as="geometry"/>
                </mxCell>
                <mxCell id="4" style="edgeStyle=none;hachureGap=4;html=1;entryX=0.5;entryY=1;entryDx=0;entryDy=0;fontFamily=Helvetica;fontSize=16;sketch=1;curveFitting=1;jiggle=2;" edge="1" parent="1" source="3" target="9">
                    <mxGeometry relative="1" as="geometry"/>
                </mxCell>
                <mxCell id="3" value="事务A：&lt;br style=&quot;font-size: 16px;&quot;&gt;开启事务" style="ellipse;whiteSpace=wrap;html=1;hachureGap=4;fontFamily=Helvetica;fontSize=16;sketch=1;curveFitting=1;jiggle=2;" vertex="1" parent="1">
                    <mxGeometry x="110" y="370" width="120" height="80" as="geometry"/>
                </mxCell>
                <mxCell id="6" style="edgeStyle=none;hachureGap=4;html=1;entryX=0.5;entryY=0;entryDx=0;entryDy=0;fontFamily=Helvetica;fontSize=16;sketch=1;curveFitting=1;jiggle=2;" edge="1" parent="1" source="5" target="10">
                    <mxGeometry relative="1" as="geometry"/>
                </mxCell>
                <mxCell id="5" value="事务B：&lt;br style=&quot;font-size: 16px;&quot;&gt;开启事务" style="ellipse;whiteSpace=wrap;html=1;hachureGap=4;fontFamily=Helvetica;fontSize=16;sketch=1;curveFitting=1;jiggle=2;" vertex="1" parent="1">
                    <mxGeometry x="220" y="160" width="120" height="80" as="geometry"/>
                </mxCell>
                <mxCell id="8" style="edgeStyle=none;hachureGap=4;html=1;fontFamily=Helvetica;fontSize=16;entryX=0.5;entryY=1;entryDx=0;entryDy=0;sketch=1;curveFitting=1;jiggle=2;" edge="1" parent="1" source="7" target="11">
                    <mxGeometry relative="1" as="geometry">
                        <mxPoint x="420" y="320" as="targetPoint"/>
                    </mxGeometry>
                </mxCell>
                <mxCell id="7" value="事务A：&lt;br style=&quot;font-size: 16px;&quot;&gt;查询余额为100" style="ellipse;whiteSpace=wrap;html=1;hachureGap=4;fontFamily=Helvetica;fontSize=16;sketch=1;curveFitting=1;jiggle=2;" vertex="1" parent="1">
                    <mxGeometry x="330" y="370" width="120" height="80" as="geometry"/>
                </mxCell>
                <mxCell id="9" value="100" style="text;html=1;strokeColor=#82b366;fillColor=#d5e8d4;align=center;verticalAlign=middle;whiteSpace=wrap;rounded=0;hachureGap=4;fontFamily=Helvetica;fontSize=16;sketch=1;curveFitting=1;jiggle=2;" vertex="1" parent="1">
                    <mxGeometry x="140" y="290" width="60" height="30" as="geometry"/>
                </mxCell>
                <mxCell id="10" value="100" style="text;html=1;strokeColor=#82b366;fillColor=#d5e8d4;align=center;verticalAlign=middle;whiteSpace=wrap;rounded=0;hachureGap=4;fontFamily=Helvetica;fontSize=16;sketch=1;curveFitting=1;jiggle=2;" vertex="1" parent="1">
                    <mxGeometry x="250" y="290" width="60" height="30" as="geometry"/>
                </mxCell>
                <mxCell id="11" value="100" style="text;html=1;strokeColor=#82b366;fillColor=#d5e8d4;align=center;verticalAlign=middle;whiteSpace=wrap;rounded=0;hachureGap=4;fontFamily=Helvetica;fontSize=16;sketch=1;curveFitting=1;jiggle=2;" vertex="1" parent="1">
                    <mxGeometry x="360" y="290" width="60" height="30" as="geometry"/>
                </mxCell>
                <mxCell id="13" style="edgeStyle=none;hachureGap=4;html=1;entryX=0.5;entryY=0;entryDx=0;entryDy=0;fontFamily=Helvetica;fontSize=16;sketch=1;curveFitting=1;jiggle=2;" edge="1" parent="1" source="12" target="14">
                    <mxGeometry relative="1" as="geometry"/>
                </mxCell>
                <mxCell id="12" value="事务B：&lt;br style=&quot;font-size: 16px;&quot;&gt;增加余额为150" style="ellipse;whiteSpace=wrap;html=1;hachureGap=4;fontFamily=Helvetica;fontSize=16;sketch=1;curveFitting=1;jiggle=2;" vertex="1" parent="1">
                    <mxGeometry x="440" y="160" width="120" height="80" as="geometry"/>
                </mxCell>
                <mxCell id="14" value="150" style="text;html=1;strokeColor=#b85450;fillColor=#f8cecc;align=center;verticalAlign=middle;whiteSpace=wrap;rounded=0;hachureGap=4;fontFamily=Helvetica;fontSize=16;sketch=1;curveFitting=1;jiggle=2;" vertex="1" parent="1">
                    <mxGeometry x="470" y="290" width="60" height="30" as="geometry"/>
                </mxCell>
                <mxCell id="16" style="edgeStyle=none;hachureGap=4;html=1;entryX=0.5;entryY=1;entryDx=0;entryDy=0;fontFamily=Helvetica;fontSize=16;sketch=1;curveFitting=1;jiggle=2;" edge="1" parent="1" source="15" target="17">
                    <mxGeometry relative="1" as="geometry"/>
                </mxCell>
                <mxCell id="15" value="事务A：&lt;br style=&quot;font-size: 16px;&quot;&gt;查询余额为150" style="ellipse;whiteSpace=wrap;html=1;hachureGap=4;fontFamily=Helvetica;fontSize=16;sketch=1;curveFitting=1;jiggle=2;" vertex="1" parent="1">
                    <mxGeometry x="550" y="370" width="120" height="80" as="geometry"/>
                </mxCell>
                <mxCell id="17" value="150" style="text;html=1;strokeColor=#b85450;fillColor=#f8cecc;align=center;verticalAlign=middle;whiteSpace=wrap;rounded=0;hachureGap=4;fontFamily=Helvetica;fontSize=16;sketch=1;curveFitting=1;jiggle=2;" vertex="1" parent="1">
                    <mxGeometry x="580" y="290" width="60" height="30" as="geometry"/>
                </mxCell>
                <mxCell id="18" value="100" style="text;html=1;strokeColor=#82b366;fillColor=#d5e8d4;align=center;verticalAlign=middle;whiteSpace=wrap;rounded=0;hachureGap=4;fontFamily=Helvetica;fontSize=16;sketch=1;curveFitting=1;jiggle=2;" vertex="1" parent="1">
                    <mxGeometry x="690" y="290" width="60" height="30" as="geometry"/>
                </mxCell>
                <mxCell id="21" style="edgeStyle=none;hachureGap=4;html=1;entryX=0.5;entryY=0;entryDx=0;entryDy=0;fontFamily=Helvetica;fontSize=16;sketch=1;curveFitting=1;jiggle=2;" edge="1" parent="1" source="20" target="18">
                    <mxGeometry relative="1" as="geometry"/>
                </mxCell>
                <mxCell id="20" value="事务B：&lt;br style=&quot;font-size: 16px;&quot;&gt;事务回滚" style="ellipse;whiteSpace=wrap;html=1;hachureGap=4;fontFamily=Helvetica;fontSize=16;sketch=1;curveFitting=1;jiggle=2;" vertex="1" parent="1">
                    <mxGeometry x="660" y="160" width="120" height="80" as="geometry"/>
                </mxCell>
                <mxCell id="22" value="" style="shape=singleArrow;whiteSpace=wrap;html=1;hachureGap=4;fontFamily=Architects Daughter;fontSource=https%3A%2F%2Ffonts.googleapis.com%2Fcss%3Ffamily%3DArchitects%2BDaughter;fontSize=16;arrowWidth=0.4666660853794643;arrowSize=0.07650256547771517;sketch=1;curveFitting=1;jiggle=2;" vertex="1" parent="1">
                    <mxGeometry x="140" y="660" width="810" height="70" as="geometry"/>
                </mxCell>
                <mxCell id="23" style="edgeStyle=none;hachureGap=4;html=1;entryX=0.5;entryY=1;entryDx=0;entryDy=0;fontFamily=Helvetica;fontSize=16;sketch=1;curveFitting=1;jiggle=2;" edge="1" parent="1" source="24" target="29">
                    <mxGeometry relative="1" as="geometry"/>
                </mxCell>
                <mxCell id="24" value="事务A：&lt;br style=&quot;font-size: 16px;&quot;&gt;开启事务" style="ellipse;whiteSpace=wrap;html=1;hachureGap=4;fontFamily=Helvetica;fontSize=16;sketch=1;curveFitting=1;jiggle=2;" vertex="1" parent="1">
                    <mxGeometry x="110" y="760" width="120" height="80" as="geometry"/>
                </mxCell>
                <mxCell id="25" style="edgeStyle=none;hachureGap=4;html=1;entryX=0.5;entryY=0;entryDx=0;entryDy=0;fontFamily=Helvetica;fontSize=16;sketch=1;curveFitting=1;jiggle=2;" edge="1" parent="1" source="26" target="30">
                    <mxGeometry relative="1" as="geometry"/>
                </mxCell>
                <mxCell id="26" value="事务B：&lt;br style=&quot;font-size: 16px;&quot;&gt;开启事务" style="ellipse;whiteSpace=wrap;html=1;hachureGap=4;fontFamily=Helvetica;fontSize=16;sketch=1;curveFitting=1;jiggle=2;" vertex="1" parent="1">
                    <mxGeometry x="220" y="550" width="120" height="80" as="geometry"/>
                </mxCell>
                <mxCell id="27" style="edgeStyle=none;hachureGap=4;html=1;fontFamily=Helvetica;fontSize=16;entryX=0.5;entryY=1;entryDx=0;entryDy=0;sketch=1;curveFitting=1;jiggle=2;" edge="1" parent="1" source="28" target="31">
                    <mxGeometry relative="1" as="geometry">
                        <mxPoint x="420" y="710" as="targetPoint"/>
                    </mxGeometry>
                </mxCell>
                <mxCell id="28" value="事务A：&lt;br style=&quot;font-size: 16px;&quot;&gt;查询余额为100" style="ellipse;whiteSpace=wrap;html=1;hachureGap=4;fontFamily=Helvetica;fontSize=16;sketch=1;curveFitting=1;jiggle=2;" vertex="1" parent="1">
                    <mxGeometry x="330" y="760" width="120" height="80" as="geometry"/>
                </mxCell>
                <mxCell id="29" value="100" style="text;html=1;strokeColor=#82b366;fillColor=#d5e8d4;align=center;verticalAlign=middle;whiteSpace=wrap;rounded=0;hachureGap=4;fontFamily=Helvetica;fontSize=16;sketch=1;curveFitting=1;jiggle=2;" vertex="1" parent="1">
                    <mxGeometry x="140" y="680" width="60" height="30" as="geometry"/>
                </mxCell>
                <mxCell id="30" value="100" style="text;html=1;strokeColor=#82b366;fillColor=#d5e8d4;align=center;verticalAlign=middle;whiteSpace=wrap;rounded=0;hachureGap=4;fontFamily=Helvetica;fontSize=16;sketch=1;curveFitting=1;jiggle=2;" vertex="1" parent="1">
                    <mxGeometry x="250" y="680" width="60" height="30" as="geometry"/>
                </mxCell>
                <mxCell id="31" value="100" style="text;html=1;strokeColor=#82b366;fillColor=#d5e8d4;align=center;verticalAlign=middle;whiteSpace=wrap;rounded=0;hachureGap=4;fontFamily=Helvetica;fontSize=16;sketch=1;curveFitting=1;jiggle=2;" vertex="1" parent="1">
                    <mxGeometry x="360" y="680" width="60" height="30" as="geometry"/>
                </mxCell>
                <mxCell id="32" style="edgeStyle=none;hachureGap=4;html=1;entryX=0.5;entryY=0;entryDx=0;entryDy=0;fontFamily=Helvetica;fontSize=16;sketch=1;curveFitting=1;jiggle=2;" edge="1" parent="1" source="33" target="34">
                    <mxGeometry relative="1" as="geometry"/>
                </mxCell>
                <mxCell id="33" value="事务B：&lt;br style=&quot;font-size: 16px;&quot;&gt;增加余额为150" style="ellipse;whiteSpace=wrap;html=1;hachureGap=4;fontFamily=Helvetica;fontSize=16;sketch=1;curveFitting=1;jiggle=2;" vertex="1" parent="1">
                    <mxGeometry x="440" y="550" width="120" height="80" as="geometry"/>
                </mxCell>
                <mxCell id="34" value="150" style="text;html=1;strokeColor=#b85450;fillColor=#f8cecc;align=center;verticalAlign=middle;whiteSpace=wrap;rounded=0;hachureGap=4;fontFamily=Helvetica;fontSize=16;sketch=1;curveFitting=1;jiggle=2;" vertex="1" parent="1">
                    <mxGeometry x="470" y="650" width="60" height="30" as="geometry"/>
                </mxCell>
                <mxCell id="35" style="edgeStyle=none;hachureGap=4;html=1;fontFamily=Helvetica;fontSize=16;sketch=1;curveFitting=1;jiggle=2;entryX=0.5;entryY=1;entryDx=0;entryDy=0;" edge="1" parent="1" source="36" target="42">
                    <mxGeometry relative="1" as="geometry">
                        <mxPoint x="560" y="740" as="targetPoint"/>
                    </mxGeometry>
                </mxCell>
                <mxCell id="36" value="事务A：&lt;br style=&quot;font-size: 16px;&quot;&gt;查询余额为100" style="ellipse;whiteSpace=wrap;html=1;hachureGap=4;fontFamily=Helvetica;fontSize=16;sketch=1;curveFitting=1;jiggle=2;" vertex="1" parent="1">
                    <mxGeometry x="550" y="760" width="120" height="80" as="geometry"/>
                </mxCell>
                <mxCell id="37" value="150" style="text;html=1;strokeColor=#b85450;fillColor=#f8cecc;align=center;verticalAlign=middle;whiteSpace=wrap;rounded=0;hachureGap=4;fontFamily=Helvetica;fontSize=16;sketch=1;curveFitting=1;jiggle=2;" vertex="1" parent="1">
                    <mxGeometry x="580" y="650" width="60" height="30" as="geometry"/>
                </mxCell>
                <mxCell id="38" value="150" style="text;html=1;strokeColor=#82b366;fillColor=#d5e8d4;align=center;verticalAlign=middle;whiteSpace=wrap;rounded=0;hachureGap=4;fontFamily=Helvetica;fontSize=16;sketch=1;curveFitting=1;jiggle=2;" vertex="1" parent="1">
                    <mxGeometry x="690" y="680" width="60" height="30" as="geometry"/>
                </mxCell>
                <mxCell id="39" style="edgeStyle=none;hachureGap=4;html=1;entryX=0.5;entryY=0;entryDx=0;entryDy=0;fontFamily=Helvetica;fontSize=16;sketch=1;curveFitting=1;jiggle=2;" edge="1" parent="1" source="40" target="38">
                    <mxGeometry relative="1" as="geometry"/>
                </mxCell>
                <mxCell id="40" value="事务B：&lt;br style=&quot;font-size: 16px;&quot;&gt;事务提交" style="ellipse;whiteSpace=wrap;html=1;hachureGap=4;fontFamily=Helvetica;fontSize=16;sketch=1;curveFitting=1;jiggle=2;" vertex="1" parent="1">
                    <mxGeometry x="660" y="550" width="120" height="80" as="geometry"/>
                </mxCell>
                <mxCell id="41" value="100" style="text;html=1;strokeColor=#82b366;fillColor=#d5e8d4;align=center;verticalAlign=middle;whiteSpace=wrap;rounded=0;hachureGap=4;fontFamily=Helvetica;fontSize=16;sketch=1;curveFitting=1;jiggle=2;" vertex="1" parent="1">
                    <mxGeometry x="470" y="680" width="60" height="30" as="geometry"/>
                </mxCell>
                <mxCell id="42" value="100" style="text;html=1;strokeColor=#82b366;fillColor=#d5e8d4;align=center;verticalAlign=middle;whiteSpace=wrap;rounded=0;hachureGap=4;fontFamily=Helvetica;fontSize=16;sketch=1;curveFitting=1;jiggle=2;" vertex="1" parent="1">
                    <mxGeometry x="580" y="680" width="60" height="30" as="geometry"/>
                </mxCell>
                <mxCell id="43" value="150" style="text;html=1;strokeColor=#82b366;fillColor=#d5e8d4;align=center;verticalAlign=middle;whiteSpace=wrap;rounded=0;hachureGap=4;fontFamily=Helvetica;fontSize=16;sketch=1;curveFitting=1;jiggle=2;" vertex="1" parent="1">
                    <mxGeometry x="800" y="680" width="60" height="30" as="geometry"/>
                </mxCell>
                <mxCell id="45" style="edgeStyle=none;sketch=1;hachureGap=4;jiggle=2;curveFitting=1;html=1;entryX=0.5;entryY=1;entryDx=0;entryDy=0;fontFamily=Architects Daughter;fontSource=https%3A%2F%2Ffonts.googleapis.com%2Fcss%3Ffamily%3DArchitects%2BDaughter;fontSize=16;" edge="1" parent="1" source="44" target="43">
                    <mxGeometry relative="1" as="geometry"/>
                </mxCell>
                <mxCell id="44" value="事务A：&lt;br style=&quot;font-size: 16px;&quot;&gt;查询余额为150" style="ellipse;whiteSpace=wrap;html=1;hachureGap=4;fontFamily=Helvetica;fontSize=16;sketch=1;curveFitting=1;jiggle=2;" vertex="1" parent="1">
                    <mxGeometry x="770" y="760" width="120" height="80" as="geometry"/>
                </mxCell>
                <mxCell id="46" value="" style="shape=singleArrow;whiteSpace=wrap;html=1;hachureGap=4;fontFamily=Architects Daughter;fontSource=https%3A%2F%2Ffonts.googleapis.com%2Fcss%3Ffamily%3DArchitects%2BDaughter;fontSize=16;arrowWidth=0.4666660853794643;arrowSize=0.07650256547771517;sketch=1;curveFitting=1;jiggle=2;" vertex="1" parent="1">
                    <mxGeometry x="140" y="1090" width="709" height="80" as="geometry"/>
                </mxCell>
                <mxCell id="47" style="edgeStyle=none;hachureGap=4;html=1;entryX=0.041;entryY=0.75;entryDx=0;entryDy=0;fontFamily=Helvetica;fontSize=16;sketch=1;curveFitting=1;jiggle=2;entryPerimeter=0;" edge="1" parent="1" source="48" target="46">
                    <mxGeometry relative="1" as="geometry">
                        <mxPoint x="170" y="1140" as="targetPoint"/>
                    </mxGeometry>
                </mxCell>
                <mxCell id="48" value="事务A：&lt;br style=&quot;font-size: 16px;&quot;&gt;开启事务" style="ellipse;whiteSpace=wrap;html=1;hachureGap=4;fontFamily=Helvetica;fontSize=16;sketch=1;curveFitting=1;jiggle=2;" vertex="1" parent="1">
                    <mxGeometry x="110" y="1200" width="120" height="80" as="geometry"/>
                </mxCell>
                <mxCell id="49" style="edgeStyle=none;hachureGap=4;html=1;entryX=0.5;entryY=0;entryDx=0;entryDy=0;fontFamily=Helvetica;fontSize=16;sketch=1;curveFitting=1;jiggle=2;" edge="1" parent="1" source="50">
                    <mxGeometry relative="1" as="geometry">
                        <mxPoint x="280" y="1110" as="targetPoint"/>
                    </mxGeometry>
                </mxCell>
                <mxCell id="50" value="事务B：&lt;br style=&quot;font-size: 16px;&quot;&gt;开启事务" style="ellipse;whiteSpace=wrap;html=1;hachureGap=4;fontFamily=Helvetica;fontSize=16;sketch=1;curveFitting=1;jiggle=2;" vertex="1" parent="1">
                    <mxGeometry x="220" y="980" width="120" height="80" as="geometry"/>
                </mxCell>
                <mxCell id="51" style="edgeStyle=none;hachureGap=4;html=1;fontFamily=Helvetica;fontSize=16;sketch=1;curveFitting=1;jiggle=2;" edge="1" parent="1" source="52">
                    <mxGeometry relative="1" as="geometry">
                        <mxPoint x="390" y="1150" as="targetPoint"/>
                    </mxGeometry>
                </mxCell>
                <mxCell id="52" value="事务A：&lt;br style=&quot;font-size: 16px;&quot;&gt;查询数据共3条" style="ellipse;whiteSpace=wrap;html=1;hachureGap=4;fontFamily=Helvetica;fontSize=16;sketch=1;curveFitting=1;jiggle=2;" vertex="1" parent="1">
                    <mxGeometry x="330" y="1200" width="120" height="80" as="geometry"/>
                </mxCell>
                <mxCell id="56" style="edgeStyle=none;hachureGap=4;html=1;entryX=0.5;entryY=0;entryDx=0;entryDy=0;fontFamily=Helvetica;fontSize=16;sketch=1;curveFitting=1;jiggle=2;" edge="1" parent="1" source="57" target="87">
                    <mxGeometry relative="1" as="geometry">
                        <mxPoint x="500" y="1080" as="targetPoint"/>
                    </mxGeometry>
                </mxCell>
                <mxCell id="57" value="事务B：&lt;br style=&quot;font-size: 16px;&quot;&gt;插入1条数据" style="ellipse;whiteSpace=wrap;html=1;hachureGap=4;fontFamily=Helvetica;fontSize=16;sketch=1;curveFitting=1;jiggle=2;" vertex="1" parent="1">
                    <mxGeometry x="440" y="980" width="120" height="80" as="geometry"/>
                </mxCell>
                <mxCell id="59" style="edgeStyle=none;hachureGap=4;html=1;fontFamily=Helvetica;fontSize=16;sketch=1;curveFitting=1;jiggle=2;entryX=0.5;entryY=1;entryDx=0;entryDy=0;" edge="1" parent="1" source="60" target="98">
                    <mxGeometry relative="1" as="geometry">
                        <mxPoint x="610" y="1140" as="targetPoint"/>
                    </mxGeometry>
                </mxCell>
                <mxCell id="60" value="事务A：&lt;br style=&quot;font-size: 16px;&quot;&gt;查询数据共4条" style="ellipse;whiteSpace=wrap;html=1;hachureGap=4;fontFamily=Helvetica;fontSize=16;sketch=1;curveFitting=1;jiggle=2;" vertex="1" parent="1">
                    <mxGeometry x="660" y="1200" width="120" height="80" as="geometry"/>
                </mxCell>
                <mxCell id="63" style="edgeStyle=none;hachureGap=4;html=1;entryX=0.5;entryY=0;entryDx=0;entryDy=0;fontFamily=Helvetica;fontSize=16;sketch=1;curveFitting=1;jiggle=2;" edge="1" parent="1" source="64" target="91">
                    <mxGeometry relative="1" as="geometry">
                        <mxPoint x="720" y="1110" as="targetPoint"/>
                    </mxGeometry>
                </mxCell>
                <mxCell id="64" value="事务B：&lt;br style=&quot;font-size: 16px;&quot;&gt;事务提交" style="ellipse;whiteSpace=wrap;html=1;hachureGap=4;fontFamily=Helvetica;fontSize=16;sketch=1;curveFitting=1;jiggle=2;" vertex="1" parent="1">
                    <mxGeometry x="550" y="980" width="120" height="80" as="geometry"/>
                </mxCell>
                <mxCell id="78" value="1" style="rounded=0;whiteSpace=wrap;html=1;sketch=1;hachureGap=4;jiggle=2;curveFitting=1;fontFamily=Architects Daughter;fontSource=https%3A%2F%2Ffonts.googleapis.com%2Fcss%3Ffamily%3DArchitects%2BDaughter;fontSize=14;fillColor=#d5e8d4;strokeColor=#82b366;" vertex="1" parent="1">
                    <mxGeometry x="140" y="1110" width="60" height="10" as="geometry"/>
                </mxCell>
                <mxCell id="79" value="2" style="rounded=0;whiteSpace=wrap;html=1;sketch=1;hachureGap=4;jiggle=2;curveFitting=1;fontFamily=Architects Daughter;fontSource=https%3A%2F%2Ffonts.googleapis.com%2Fcss%3Ffamily%3DArchitects%2BDaughter;fontSize=14;fillColor=#d5e8d4;strokeColor=#82b366;" vertex="1" parent="1">
                    <mxGeometry x="140" y="1120" width="60" height="10" as="geometry"/>
                </mxCell>
                <mxCell id="80" value="3" style="rounded=0;whiteSpace=wrap;html=1;sketch=1;hachureGap=4;jiggle=2;curveFitting=1;fontFamily=Architects Daughter;fontSource=https%3A%2F%2Ffonts.googleapis.com%2Fcss%3Ffamily%3DArchitects%2BDaughter;fontSize=14;fillColor=#d5e8d4;strokeColor=#82b366;" vertex="1" parent="1">
                    <mxGeometry x="140" y="1130" width="60" height="10" as="geometry"/>
                </mxCell>
                <mxCell id="81" value="1" style="rounded=0;whiteSpace=wrap;html=1;sketch=1;hachureGap=4;jiggle=2;curveFitting=1;fontFamily=Architects Daughter;fontSource=https%3A%2F%2Ffonts.googleapis.com%2Fcss%3Ffamily%3DArchitects%2BDaughter;fontSize=14;fillColor=#d5e8d4;strokeColor=#82b366;" vertex="1" parent="1">
                    <mxGeometry x="250" y="1110" width="60" height="10" as="geometry"/>
                </mxCell>
                <mxCell id="82" value="2" style="rounded=0;whiteSpace=wrap;html=1;sketch=1;hachureGap=4;jiggle=2;curveFitting=1;fontFamily=Architects Daughter;fontSource=https%3A%2F%2Ffonts.googleapis.com%2Fcss%3Ffamily%3DArchitects%2BDaughter;fontSize=14;fillColor=#d5e8d4;strokeColor=#82b366;" vertex="1" parent="1">
                    <mxGeometry x="250" y="1120" width="60" height="10" as="geometry"/>
                </mxCell>
                <mxCell id="83" value="3" style="rounded=0;whiteSpace=wrap;html=1;sketch=1;hachureGap=4;jiggle=2;curveFitting=1;fontFamily=Architects Daughter;fontSource=https%3A%2F%2Ffonts.googleapis.com%2Fcss%3Ffamily%3DArchitects%2BDaughter;fontSize=14;fillColor=#d5e8d4;strokeColor=#82b366;" vertex="1" parent="1">
                    <mxGeometry x="250" y="1130" width="60" height="10" as="geometry"/>
                </mxCell>
                <mxCell id="84" value="1" style="rounded=0;whiteSpace=wrap;html=1;sketch=1;hachureGap=4;jiggle=2;curveFitting=1;fontFamily=Architects Daughter;fontSource=https%3A%2F%2Ffonts.googleapis.com%2Fcss%3Ffamily%3DArchitects%2BDaughter;fontSize=14;fillColor=#d5e8d4;strokeColor=#82b366;" vertex="1" parent="1">
                    <mxGeometry x="360" y="1110" width="60" height="10" as="geometry"/>
                </mxCell>
                <mxCell id="85" value="2" style="rounded=0;whiteSpace=wrap;html=1;sketch=1;hachureGap=4;jiggle=2;curveFitting=1;fontFamily=Architects Daughter;fontSource=https%3A%2F%2Ffonts.googleapis.com%2Fcss%3Ffamily%3DArchitects%2BDaughter;fontSize=14;fillColor=#d5e8d4;strokeColor=#82b366;" vertex="1" parent="1">
                    <mxGeometry x="360" y="1120" width="60" height="10" as="geometry"/>
                </mxCell>
                <mxCell id="86" value="3" style="rounded=0;whiteSpace=wrap;html=1;sketch=1;hachureGap=4;jiggle=2;curveFitting=1;fontFamily=Architects Daughter;fontSource=https%3A%2F%2Ffonts.googleapis.com%2Fcss%3Ffamily%3DArchitects%2BDaughter;fontSize=14;fillColor=#d5e8d4;strokeColor=#82b366;" vertex="1" parent="1">
                    <mxGeometry x="360" y="1130" width="60" height="10" as="geometry"/>
                </mxCell>
                <mxCell id="87" value="1" style="rounded=0;whiteSpace=wrap;html=1;sketch=1;hachureGap=4;jiggle=2;curveFitting=1;fontFamily=Architects Daughter;fontSource=https%3A%2F%2Ffonts.googleapis.com%2Fcss%3Ffamily%3DArchitects%2BDaughter;fontSize=14;fillColor=#d5e8d4;strokeColor=#82b366;" vertex="1" parent="1">
                    <mxGeometry x="470" y="1110" width="60" height="10" as="geometry"/>
                </mxCell>
                <mxCell id="88" value="2" style="rounded=0;whiteSpace=wrap;html=1;sketch=1;hachureGap=4;jiggle=2;curveFitting=1;fontFamily=Architects Daughter;fontSource=https%3A%2F%2Ffonts.googleapis.com%2Fcss%3Ffamily%3DArchitects%2BDaughter;fontSize=14;fillColor=#d5e8d4;strokeColor=#82b366;" vertex="1" parent="1">
                    <mxGeometry x="470" y="1120" width="60" height="10" as="geometry"/>
                </mxCell>
                <mxCell id="89" value="3" style="rounded=0;whiteSpace=wrap;html=1;sketch=1;hachureGap=4;jiggle=2;curveFitting=1;fontFamily=Architects Daughter;fontSource=https%3A%2F%2Ffonts.googleapis.com%2Fcss%3Ffamily%3DArchitects%2BDaughter;fontSize=14;fillColor=#d5e8d4;strokeColor=#82b366;" vertex="1" parent="1">
                    <mxGeometry x="470" y="1130" width="60" height="10" as="geometry"/>
                </mxCell>
                <mxCell id="90" value="4" style="rounded=0;whiteSpace=wrap;html=1;sketch=1;hachureGap=4;jiggle=2;curveFitting=1;fontFamily=Architects Daughter;fontSource=https%3A%2F%2Ffonts.googleapis.com%2Fcss%3Ffamily%3DArchitects%2BDaughter;fontSize=14;fillColor=#f8cecc;strokeColor=#b85450;" vertex="1" parent="1">
                    <mxGeometry x="470" y="1140" width="60" height="10" as="geometry"/>
                </mxCell>
                <mxCell id="91" value="1" style="rounded=0;whiteSpace=wrap;html=1;sketch=1;hachureGap=4;jiggle=2;curveFitting=1;fontFamily=Architects Daughter;fontSource=https%3A%2F%2Ffonts.googleapis.com%2Fcss%3Ffamily%3DArchitects%2BDaughter;fontSize=14;fillColor=#d5e8d4;strokeColor=#82b366;" vertex="1" parent="1">
                    <mxGeometry x="580" y="1110" width="60" height="10" as="geometry"/>
                </mxCell>
                <mxCell id="92" value="2" style="rounded=0;whiteSpace=wrap;html=1;sketch=1;hachureGap=4;jiggle=2;curveFitting=1;fontFamily=Architects Daughter;fontSource=https%3A%2F%2Ffonts.googleapis.com%2Fcss%3Ffamily%3DArchitects%2BDaughter;fontSize=14;fillColor=#d5e8d4;strokeColor=#82b366;" vertex="1" parent="1">
                    <mxGeometry x="580" y="1120" width="60" height="10" as="geometry"/>
                </mxCell>
                <mxCell id="93" value="3" style="rounded=0;whiteSpace=wrap;html=1;sketch=1;hachureGap=4;jiggle=2;curveFitting=1;fontFamily=Architects Daughter;fontSource=https%3A%2F%2Ffonts.googleapis.com%2Fcss%3Ffamily%3DArchitects%2BDaughter;fontSize=14;fillColor=#d5e8d4;strokeColor=#82b366;" vertex="1" parent="1">
                    <mxGeometry x="580" y="1130" width="60" height="10" as="geometry"/>
                </mxCell>
                <mxCell id="94" value="4" style="rounded=0;whiteSpace=wrap;html=1;sketch=1;hachureGap=4;jiggle=2;curveFitting=1;fontFamily=Architects Daughter;fontSource=https%3A%2F%2Ffonts.googleapis.com%2Fcss%3Ffamily%3DArchitects%2BDaughter;fontSize=14;fillColor=#d5e8d4;strokeColor=#82b366;" vertex="1" parent="1">
                    <mxGeometry x="580" y="1140" width="60" height="10" as="geometry"/>
                </mxCell>
                <mxCell id="95" value="1" style="rounded=0;whiteSpace=wrap;html=1;sketch=1;hachureGap=4;jiggle=2;curveFitting=1;fontFamily=Architects Daughter;fontSource=https%3A%2F%2Ffonts.googleapis.com%2Fcss%3Ffamily%3DArchitects%2BDaughter;fontSize=14;fillColor=#d5e8d4;strokeColor=#82b366;" vertex="1" parent="1">
                    <mxGeometry x="690" y="1110" width="60" height="10" as="geometry"/>
                </mxCell>
                <mxCell id="96" value="2" style="rounded=0;whiteSpace=wrap;html=1;sketch=1;hachureGap=4;jiggle=2;curveFitting=1;fontFamily=Architects Daughter;fontSource=https%3A%2F%2Ffonts.googleapis.com%2Fcss%3Ffamily%3DArchitects%2BDaughter;fontSize=14;fillColor=#d5e8d4;strokeColor=#82b366;" vertex="1" parent="1">
                    <mxGeometry x="690" y="1120" width="60" height="10" as="geometry"/>
                </mxCell>
                <mxCell id="97" value="3" style="rounded=0;whiteSpace=wrap;html=1;sketch=1;hachureGap=4;jiggle=2;curveFitting=1;fontFamily=Architects Daughter;fontSource=https%3A%2F%2Ffonts.googleapis.com%2Fcss%3Ffamily%3DArchitects%2BDaughter;fontSize=14;fillColor=#d5e8d4;strokeColor=#82b366;" vertex="1" parent="1">
                    <mxGeometry x="690" y="1130" width="60" height="10" as="geometry"/>
                </mxCell>
                <mxCell id="98" value="4" style="rounded=0;whiteSpace=wrap;html=1;sketch=1;hachureGap=4;jiggle=2;curveFitting=1;fontFamily=Architects Daughter;fontSource=https%3A%2F%2Ffonts.googleapis.com%2Fcss%3Ffamily%3DArchitects%2BDaughter;fontSize=14;fillColor=#d5e8d4;strokeColor=#82b366;" vertex="1" parent="1">
                    <mxGeometry x="690" y="1140" width="60" height="10" as="geometry"/>
                </mxCell>
            </root>
        </mxGraphModel>
    </diagram>
</mxfile>